<svg fill="#28a5df" xmlns="http://www.w3.org/2000/svg" viewBox="0 0 64 64" width="64px" height="64px"><path d="M 59.953125 2 C 58.925781 1.976563 57.886719 2.335938 57.066406 3.085938 L 42.3125 16.675781 L 37.328125 11.699219 C 34.601563 8.96875 30.160156 8.96875 27.433594 11.699219 L 26.0625 13.066406 L 20.714844 17.15625 C 16.386719 20.464844 11.664063 23.261719 6.679688 25.464844 L 0.28125 28.289063 C 0.0195313 28.402344 -0.175781 28.621094 -0.265625 28.890625 C -0.355469 29.164063 -0.324219 29.457031 -0.183594 29.703125 L 1.804688 33.15625 C 3.054688 35.332031 4.410156 37.421875 5.820313 39.46875 C 5.824219 39.476563 5.824219 39.488281 5.828125 39.5 C 5.882813 39.613281 5.957031 39.707031 6.046875 39.792969 C 11.957031 48.296875 19.203125 55.683594 27.714844 61.773438 L 28.214844 62.128906 C 28.386719 62.253906 28.59375 62.316406 28.796875 62.316406 C 28.980469 62.316406 29.160156 62.265625 29.324219 62.167969 L 30.222656 61.609375 C 36.96875 57.441406 42.933594 52.207031 47.949219 46.058594 L 52.929688 39.941406 L 54.300781 38.566406 C 57.03125 35.839844 57.03125 31.398438 54.300781 28.671875 L 49.324219 23.691406 L 62.917969 8.929688 C 64.414063 7.292969 64.355469 4.78125 62.785156 3.210938 C 62.003906 2.429688 60.984375 2.023438 59.953125 2 Z M 59.910156 4 C 60.441406 4.011719 60.96875 4.222656 61.375 4.625 C 62.183594 5.4375 62.210938 6.734375 61.441406 7.578125 L 47.90625 22.273438 L 43.722656 18.089844 L 58.417969 4.5625 C 58.839844 4.175781 59.378906 3.988281 59.910156 4 Z M 32.382813 11.648438 C 33.664063 11.648438 34.945313 12.136719 35.917969 13.109375 L 52.890625 30.082031 C 54.835938 32.03125 54.835938 35.203125 52.890625 37.152344 L 52.183594 37.859375 L 28.140625 13.816406 L 28.84375 13.109375 C 29.820313 12.136719 31.101563 11.648438 32.382813 11.648438 Z M 26.640625 15.144531 L 27.722656 16.230469 L 50.835938 39.34375 L 46.394531 44.792969 C 41.523438 50.773438 35.730469 55.855469 29.171875 59.90625 L 28.839844 60.113281 C 25.914063 58.019531 23.152344 55.753906 20.53125 53.355469 C 22.175781 52.199219 23.785156 50.984375 25.320313 49.699219 C 25.742188 49.34375 25.800781 48.710938 25.445313 48.289063 C 25.089844 47.863281 24.460938 47.808594 24.035156 48.164063 C 22.4375 49.503906 20.761719 50.765625 19.046875 51.957031 C 15.066406 48.136719 11.453125 43.972656 8.242188 39.464844 C 12.722656 37.335938 16.992188 34.757813 20.933594 31.746094 L 22.976563 30.179688 C 23.414063 29.84375 23.5 29.21875 23.164063 28.78125 C 22.828125 28.339844 22.203125 28.257813 21.761719 28.59375 L 19.71875 30.15625 C 15.804688 33.148438 11.558594 35.703125 7.101563 37.796875 C 5.855469 35.960938 4.652344 34.09375 3.539063 32.15625 L 2.105469 29.671875 L 7.484375 27.292969 C 12.617188 25.027344 17.476563 22.148438 21.933594 18.746094 Z M 26.015625 17.769531 C 25.761719 17.769531 25.507813 17.867188 25.3125 18.0625 L 23.894531 19.476563 C 23.503906 19.867188 23.503906 20.5 23.894531 20.890625 C 24.089844 21.085938 24.347656 21.183594 24.605469 21.183594 C 24.859375 21.183594 25.117188 21.085938 25.3125 20.890625 L 26.722656 19.476563 C 27.117188 19.085938 27.117188 18.453125 26.722656 18.0625 C 26.527344 17.867188 26.273438 17.769531 26.015625 17.769531 Z M 29.550781 21.304688 C 29.296875 21.304688 29.042969 21.402344 28.84375 21.597656 L 27.433594 23.011719 C 27.042969 23.402344 27.042969 24.035156 27.433594 24.425781 C 27.625 24.621094 27.882813 24.71875 28.140625 24.71875 C 28.394531 24.71875 28.652344 24.621094 28.847656 24.425781 L 30.261719 23.011719 C 30.652344 22.621094 30.652344 21.988281 30.261719 21.597656 C 30.066406 21.402344 29.808594 21.304688 29.550781 21.304688 Z M 33.089844 24.839844 C 32.835938 24.839844 32.578125 24.9375 32.382813 25.132813 L 30.96875 26.546875 C 30.578125 26.9375 30.578125 27.570313 30.96875 27.960938 C 31.164063 28.15625 31.417969 28.253906 31.675781 28.253906 C 31.933594 28.253906 32.1875 28.15625 32.382813 27.960938 L 33.796875 26.546875 C 34.1875 26.15625 34.1875 25.523438 33.796875 25.132813 C 33.601563 24.9375 33.34375 24.839844 33.089844 24.839844 Z M 36.625 28.375 C 36.367188 28.375 36.113281 28.472656 35.917969 28.667969 L 34.503906 30.082031 C 34.113281 30.472656 34.113281 31.105469 34.503906 31.496094 C 34.699219 31.691406 34.957031 31.789063 35.210938 31.789063 C 35.46875 31.789063 35.722656 31.691406 35.917969 31.496094 L 37.328125 30.082031 C 37.722656 29.691406 37.722656 29.058594 37.328125 28.667969 C 37.132813 28.472656 36.878906 28.375 36.625 28.375 Z M 40.160156 31.910156 C 39.90625 31.910156 39.648438 32.007813 39.453125 32.203125 L 38.039063 33.617188 C 37.648438 34.007813 37.648438 34.640625 38.039063 35.03125 C 38.234375 35.226563 38.488281 35.324219 38.746094 35.324219 C 39.003906 35.324219 39.257813 35.226563 39.453125 35.03125 L 40.867188 33.617188 C 41.257813 33.226563 41.257813 32.59375 40.867188 32.203125 C 40.671875 32.007813 40.414063 31.910156 40.160156 31.910156 Z M 43.695313 35.445313 C 43.441406 35.445313 43.183594 35.542969 42.988281 35.738281 L 41.574219 37.152344 C 41.183594 37.542969 41.183594 38.175781 41.574219 38.566406 C 41.769531 38.761719 42.023438 38.859375 42.28125 38.859375 C 42.539063 38.859375 42.792969 38.761719 42.988281 38.566406 L 44.402344 37.152344 C 44.792969 36.761719 44.792969 36.128906 44.402344 35.738281 C 44.207031 35.542969 43.949219 35.445313 43.695313 35.445313 Z M 47.234375 38.980469 C 46.976563 38.980469 46.71875 39.078125 46.523438 39.273438 L 45.109375 40.6875 C 44.71875 41.082031 44.71875 41.714844 45.109375 42.105469 C 45.304688 42.300781 45.558594 42.394531 45.816406 42.394531 C 46.074219 42.394531 46.328125 42.296875 46.527344 42.105469 L 47.9375 40.6875 C 48.328125 40.296875 48.328125 39.664063 47.9375 39.273438 C 47.742188 39.078125 47.488281 38.980469 47.234375 38.980469 Z M 28.199219 44.796875 C 27.941406 44.789063 27.683594 44.878906 27.484375 45.070313 L 26.8125 45.703125 C 26.410156 46.082031 26.386719 46.714844 26.765625 47.117188 C 26.960938 47.328125 27.230469 47.433594 27.496094 47.433594 C 27.742188 47.433594 27.988281 47.34375 28.179688 47.164063 L 28.859375 46.519531 C 29.261719 46.140625 29.28125 45.507813 28.902344 45.109375 C 28.710938 44.90625 28.457031 44.804688 28.199219 44.796875 Z"/></svg>