<svg fill="#28a5df" xmlns="http://www.w3.org/2000/svg" viewBox="0 0 64 64" width="64px" height="64px"><path d="M 31.28125 4 C 29.824219 3.996094 28.347656 4.113281 26.84375 4.355469 C 20.675781 5.351563 15.570313 8.246094 11.667969 12.964844 C 8.503906 16.789063 6.488281 21.476563 5.675781 26.894531 C 5.644531 27.113281 5.617188 27.332031 5.585938 27.589844 L 5.542969 27.984375 C 5.488281 28.4375 5.746094 28.867188 6.167969 29.035156 C 6.589844 29.203125 7.074219 29.0625 7.34375 28.691406 C 7.554688 28.402344 7.75 28.125 7.945313 27.855469 C 8.320313 27.324219 8.671875 26.828125 9.050781 26.355469 C 12.363281 22.234375 16.589844 19.21875 21.609375 17.390625 C 25.402344 16.007813 28.824219 15.589844 32.066406 16.113281 C 34.617188 16.523438 36.4375 17.632813 37.628906 19.503906 C 38.511719 20.886719 38.984375 22.519531 39.117188 24.640625 C 39.125 24.738281 39.128906 24.839844 39.128906 24.941406 L 22.859375 24.941406 C 23.222656 23.5 23.875 22.785156 25.046875 21.503906 C 25.316406 21.203125 25.613281 20.882813 25.933594 20.519531 C 26.191406 20.222656 26.214844 19.804688 26.054688 19.449219 C 25.894531 19.089844 25.5 18.859375 25.109375 18.859375 C 25 18.847656 24.847656 18.867188 24.722656 18.898438 L 24.722656 18.894531 C 17.132813 20.929688 9.773438 27.683594 11.882813 40.558594 C 13.417969 49.191406 19.957031 55.683594 28.945313 57.507813 C 30.566406 57.835938 32.285156 57.996094 34.214844 57.996094 C 35.234375 57.996094 36.3125 57.953125 37.464844 57.863281 C 41.957031 57.515625 46.234375 56.34375 50.175781 54.375 C 50.847656 54.039063 51.1875 53.488281 51.183594 52.734375 C 51.171875 50.40625 51.175781 48.074219 51.175781 45.742188 L 51.175781 42.847656 C 51.175781 42.699219 51.164063 42.542969 51.152344 42.390625 L 51.140625 42.230469 C 51.109375 41.683594 50.585938 41.28125 50.035156 41.292969 C 49.878906 41.300781 49.675781 41.347656 49.539063 41.425781 L 49.109375 41.671875 C 43.878906 44.660156 38.226563 45.742188 32.320313 44.878906 C 29.269531 44.433594 26.9375 43.308594 25.183594 41.4375 C 23.839844 40.007813 23.085938 38.289063 22.902344 36.203125 L 54.582031 36.203125 C 55.132813 36.203125 55.582031 35.757813 55.582031 35.203125 L 55.582031 34.96875 L 55.53125 28.738281 C 55.5 25.507813 54.917969 22.390625 53.800781 19.46875 C 51.777344 14.179688 48.363281 10.117188 43.65625 7.390625 C 39.796875 5.152344 35.644531 4.019531 31.28125 4 Z M 31.253906 6.003906 C 35.28125 6.019531 39.101563 7.0625 42.65625 9.121094 C 46.957031 11.609375 50.078125 15.335938 51.933594 20.1875 C 52.964844 22.878906 53.503906 25.765625 53.53125 28.753906 L 53.578125 34.203125 L 21.855469 34.203125 C 21.589844 34.203125 21.335938 34.308594 21.144531 34.5 C 20.957031 34.6875 20.855469 34.941406 20.855469 35.207031 C 20.871094 38.28125 21.808594 40.765625 23.722656 42.808594 C 25.800781 45.019531 28.515625 46.34375 32.03125 46.859375 C 38.019531 47.734375 43.765625 46.753906 49.171875 43.914063 L 49.171875 45.742188 C 49.171875 48.027344 49.171875 50.316406 49.183594 52.640625 C 45.5 54.457031 41.503906 55.542969 37.308594 55.871094 C 34.160156 56.113281 31.628906 56.011719 29.34375 55.546875 C 21.175781 53.894531 15.238281 48.015625 13.855469 40.21875 C 12.273438 30.570313 16.582031 24.761719 21.984375 22.0625 C 21.339844 23.007813 20.894531 24.089844 20.667969 25.8125 C 20.628906 26.09375 20.714844 26.382813 20.90625 26.601563 C 21.097656 26.820313 21.371094 26.941406 21.65625 26.941406 L 40.121094 26.941406 C 40.671875 26.941406 41.121094 26.496094 41.121094 25.941406 L 41.125 25.53125 C 41.128906 25.191406 41.132813 24.855469 41.113281 24.515625 C 40.957031 22.042969 40.386719 20.109375 39.316406 18.433594 C 37.820313 16.082031 35.488281 14.640625 32.386719 14.140625 C 28.796875 13.5625 25.046875 14.007813 20.921875 15.515625 C 15.929688 17.332031 11.667969 20.253906 8.242188 24.203125 C 9.199219 20.386719 10.835938 17.105469 13.207031 14.238281 C 16.792969 9.90625 21.488281 7.246094 27.164063 6.328125 C 28.546875 6.105469 29.914063 6 31.253906 6.003906 Z M 30.957031 7.960938 C 29.828125 7.964844 28.679688 8.0625 27.523438 8.25 C 26.804688 8.363281 26.089844 8.515625 25.402344 8.695313 C 24.867188 8.835938 24.546875 9.382813 24.6875 9.917969 C 24.808594 10.367188 25.210938 10.664063 25.65625 10.664063 C 25.742188 10.664063 25.824219 10.652344 25.910156 10.628906 C 26.535156 10.46875 27.1875 10.328125 27.84375 10.222656 C 29.945313 9.886719 32.007813 9.871094 33.96875 10.1875 C 34.515625 10.277344 35.023438 9.90625 35.113281 9.359375 C 35.203125 8.816406 34.832031 8.304688 34.285156 8.214844 C 33.199219 8.039063 32.089844 7.953125 30.957031 7.960938 Z M 38.140625 9.328125 C 37.753906 9.332031 37.390625 9.570313 37.234375 9.953125 C 37.027344 10.464844 37.277344 11.050781 37.789063 11.253906 C 38.617188 11.589844 39.449219 11.992188 40.253906 12.460938 C 40.410156 12.554688 40.582031 12.59375 40.753906 12.59375 C 41.097656 12.59375 41.433594 12.414063 41.621094 12.09375 C 41.894531 11.617188 41.734375 11.003906 41.253906 10.730469 C 40.367188 10.214844 39.453125 9.765625 38.535156 9.398438 C 38.40625 9.347656 38.273438 9.324219 38.140625 9.328125 Z M 8.304688 45.554688 C 8.175781 45.535156 8.039063 45.542969 7.90625 45.578125 L 5.972656 46.097656 C 5.441406 46.242188 5.121094 46.789063 5.265625 47.324219 C 5.386719 47.769531 5.789063 48.0625 6.230469 48.0625 C 6.316406 48.0625 6.402344 48.054688 6.492188 48.03125 L 8.421875 47.515625 C 8.957031 47.371094 9.273438 46.820313 9.132813 46.285156 C 9.023438 45.886719 8.6875 45.609375 8.304688 45.554688 Z M 9.988281 50.253906 C 9.859375 50.273438 9.734375 50.316406 9.613281 50.386719 L 7.882813 51.386719 C 7.402344 51.660156 7.238281 52.273438 7.515625 52.75 C 7.703125 53.070313 8.035156 53.25 8.382813 53.25 C 8.550781 53.25 8.722656 53.207031 8.882813 53.113281 L 10.613281 52.113281 C 11.089844 51.839844 11.253906 51.230469 10.980469 50.75 C 10.769531 50.390625 10.375 50.207031 9.988281 50.253906 Z M 13.210938 54.289063 C 12.957031 54.289063 12.699219 54.386719 12.503906 54.582031 L 11.089844 55.996094 C 10.699219 56.386719 10.699219 57.019531 11.089844 57.410156 C 11.285156 57.605469 11.539063 57.703125 11.796875 57.703125 C 12.054688 57.703125 12.308594 57.605469 12.503906 57.410156 L 13.917969 55.996094 C 14.308594 55.605469 14.308594 54.972656 13.917969 54.582031 C 13.722656 54.386719 13.464844 54.289063 13.210938 54.289063 Z M 17.375 57.394531 C 16.984375 57.347656 16.589844 57.527344 16.386719 57.886719 L 15.386719 59.617188 C 15.109375 60.097656 15.269531 60.707031 15.75 60.984375 C 15.90625 61.074219 16.078125 61.117188 16.25 61.117188 C 16.59375 61.117188 16.929688 60.9375 17.113281 60.617188 L 18.113281 58.886719 C 18.390625 58.410156 18.230469 57.796875 17.75 57.519531 C 17.628906 57.453125 17.503906 57.410156 17.375 57.394531 Z M 21.8125 59.34375 C 21.429688 59.398438 21.09375 59.675781 20.984375 60.078125 L 20.46875 62.011719 C 20.324219 62.542969 20.640625 63.089844 21.175781 63.234375 C 21.261719 63.257813 21.351563 63.265625 21.4375 63.265625 C 21.875 63.265625 22.28125 62.972656 22.402344 62.527344 L 22.917969 60.59375 C 23.0625 60.0625 22.746094 59.511719 22.214844 59.371094 C 22.078125 59.332031 21.941406 59.324219 21.8125 59.34375 Z"/></svg>