<?xml version="1.0"?><svg fill="#28a5df" xmlns="http://www.w3.org/2000/svg" viewBox="0 0 64 64" width="64px" height="64px">    <path d="M 31 2 C 15.009 2 2 15.009 2 31 C 2 46.991 15.009 60 31 60 C 46.991 60 60 46.991 60 31 C 60 15.009 46.991 2 31 2 z M 31 4 C 45.554 4 57.448609 15.577859 57.974609 30.005859 C 57.434609 30.019859 57 30.457 57 31 L 57 33 C 57 33.493 57.363984 33.884797 57.833984 33.966797 C 56.350984 47.463797 44.885 58 31 58 C 17.115 58 5.6490156 47.463797 4.1660156 33.966797 C 4.6360156 33.884797 5 33.493 5 33 L 5 31 C 5 30.457 4.5653906 30.019859 4.0253906 30.005859 C 4.5513906 15.577859 16.446 4 31 4 z M 31.541016 8.0058594 C 28.424156 7.9321719 25.315656 8.4885 22.410156 9.65625 C 21.898156 9.86225 21.649469 10.444031 21.855469 10.957031 C 22.012469 11.347031 22.387203 11.585938 22.783203 11.585938 C 22.907203 11.585938 23.03325 11.561719 23.15625 11.511719 C 26.69325 10.090719 30.560891 9.6586719 34.337891 10.263672 C 34.891891 10.355672 35.395422 9.9805469 35.482422 9.4355469 C 35.569422 8.8905469 35.199297 8.3770625 34.654297 8.2890625 C 33.620547 8.1233125 32.579969 8.0304219 31.541016 8.0058594 z M 38.660156 9.3847656 C 38.271 9.4009844 37.910375 9.6474063 37.765625 10.035156 C 37.571625 10.553156 37.833562 11.128266 38.351562 11.322266 C 39.063563 11.589266 39.769219 11.897234 40.449219 12.240234 C 40.594219 12.313234 40.748391 12.347656 40.900391 12.347656 C 41.266391 12.347656 41.618922 12.146828 41.794922 11.798828 C 42.043922 11.305828 41.844563 10.703078 41.351562 10.455078 C 40.605562 10.079078 39.832734 9.7412188 39.052734 9.4492188 C 38.923984 9.4004687 38.789875 9.3793594 38.660156 9.3847656 z M 37 20 C 34.243 20 32 22.243 32 25 L 32 27 C 32 29.757 34.243 32 37 32 L 39 32 C 40.654 32 42 33.346 42 35 L 42 37 C 42 38.654 40.654 40 39 40 L 37 40 C 35.346 40 34 38.654 34 37 C 34 36.448 33.552 36 33 36 C 32.448 36 32 36.448 32 37 C 32 39.757 34.243 42 37 42 L 39 42 C 41.757 42 44 39.757 44 37 L 44 35 C 44 32.243 41.757 30 39 30 L 37 30 C 35.346 30 34 28.654 34 27 L 34 25 C 34 23.346 35.346 22 37 22 L 39 22 C 40.654 22 42 23.346 42 25 C 42 25.552 42.448 26 43 26 C 43.552 26 44 25.552 44 25 C 44 22.243 41.757 20 39 20 L 37 20 z M 24 20.054688 C 20.691 20.054688 18 22.745688 18 26.054688 L 18 36.054688 C 18 39.363687 20.691 42.054688 24 42.054688 C 27.309 42.054688 30 39.363687 30 36.054688 L 30 26.054688 C 30 22.745687 27.309 20.054687 24 20.054688 z M 24 22.054688 C 26.206 22.054688 28 23.848688 28 26.054688 L 28 36.054688 C 28 38.260688 26.206 40.054688 24 40.054688 C 21.794 40.054688 20 38.260688 20 36.054688 L 20 26.054688 C 20 23.848688 21.794 22.054688 24 22.054688 z M 9 30 C 8.448 30 8 30.448 8 31 L 8 33 C 8 33.552 8.448 34 9 34 C 9.552 34 10 33.552 10 33 L 10 31 C 10 30.448 9.552 30 9 30 z M 14 30 C 13.448 30 13 30.448 13 31 L 13 33 C 13 33.552 13.448 34 14 34 C 14.552 34 15 33.552 15 33 L 15 31 C 15 30.448 14.552 30 14 30 z M 48 30 C 47.448 30 47 30.448 47 31 L 47 33 C 47 33.552 47.448 34 48 34 C 48.552 34 49 33.552 49 33 L 49 31 C 49 30.448 48.552 30 48 30 z M 53 30 C 52.448 30 52 30.448 52 31 L 52 33 C 52 33.552 52.448 34 53 34 C 53.552 34 54 33.552 54 33 L 54 31 C 54 30.448 53.552 30 53 30 z"/></svg>