<svg fill="#28a5df" xmlns="http://www.w3.org/2000/svg" viewBox="0 0 64 64" width="64px" height="64px"><path d="M 36.246094 4.9863281 A 1.0001 1.0001 0 0 0 35.261719 6 L 35.261719 8 A 1.0001 1.0001 0 1 0 37.261719 8 L 37.261719 6 A 1.0001 1.0001 0 0 0 36.246094 4.9863281 z M 40.974609 4.9863281 A 1.0001 1.0001 0 0 0 39.988281 6 L 39.988281 8 A 1.0001 1.0001 0 1 0 41.988281 8 L 41.988281 6 A 1.0001 1.0001 0 0 0 40.974609 4.9863281 z M 45.701172 4.9863281 A 1.0001 1.0001 0 0 0 44.716797 6 L 44.716797 8 A 1.0001 1.0001 0 1 0 46.716797 8 L 46.716797 6 A 1.0001 1.0001 0 0 0 45.701172 4.9863281 z M 31.347656 5.0917969 A 1.0001 1.0001 0 0 0 30.410156 6.2402344 L 30.681641 8.2226562 A 1.0001 1.0001 0 1 0 32.662109 7.9511719 L 32.392578 5.96875 A 1.0001 1.0001 0 0 0 31.347656 5.0917969 z M 26.683594 6.78125 A 1.0001 1.0001 0 0 0 25.773438 8.2402344 L 26.667969 10.027344 A 1.0001162 1.0001162 0 1 0 28.457031 9.1328125 L 27.5625 7.3457031 A 1.0001 1.0001 0 0 0 26.683594 6.78125 z M 22.453125 8.8945312 A 1.0001 1.0001 0 0 0 21.542969 10.353516 L 22.4375 12.142578 A 1.0001161 1.0001161 0 1 0 24.226562 11.248047 L 23.332031 9.4609375 A 1.0001 1.0001 0 0 0 22.453125 8.8945312 z M 40.984375 10.986328 A 1.0001 1.0001 0 0 0 40.841797 11 L 32.925781 11 C 31.942387 11 30.97136 11.229716 30.091797 11.671875 L 21.289062 16.072266 C 20.871929 16.280552 20.542733 16.609992 20.318359 17 L 14.5 17 C 7.8024098 17 2.412123 22.792288 3.0527344 29.605469 C 3.6137532 35.577959 8.8478311 40 14.806641 40 L 47.5 40 C 50.781072 40 53.387877 42.842748 52.953125 46.228516 C 52.599584 48.979582 50.098487 51 47.273438 51 L 8 51 C 6.3550302 51 5 52.35503 5 54 C 5 55.64497 6.3550302 57 8 57 L 47.193359 57 C 53.151259 57 58.386235 52.57808 58.947266 46.605469 C 59.587877 39.792288 54.19759 34 47.5 34 L 14.5 34 C 11.218928 34 8.6121233 31.157252 9.046875 27.771484 C 9.4004156 25.020418 11.901513 23 14.726562 23 L 20.318359 23 C 20.542765 23.390672 20.871182 23.72034 21.287109 23.929688 L 30.09375 28.332031 C 30.972916 28.771021 31.942387 29 32.925781 29 L 40.832031 29 A 1.0001 1.0001 0 0 0 41.158203 29 L 48.167969 29 C 49.17182 29 50 28.17182 50 27.167969 L 50 24 L 57 24 C 59.197334 24 61 22.197334 61 20 C 61 17.802666 59.197334 16 57 16 L 50 16 L 50 12.814453 C 50 11.823712 49.176288 11 48.185547 11 L 41.167969 11 A 1.0001 1.0001 0 0 0 40.984375 10.986328 z M 32.925781 13 L 40 13 L 40 16 A 1.0001 1.0001 0 1 0 42 16 L 42 13 L 48 13 L 48 16.832031 A 1.0001 1.0001 0 0 0 48 17.158203 L 48 22.832031 A 1.0001 1.0001 0 0 0 48 23.158203 L 48 27 L 42 27 L 42 20 A 1.0001 1.0001 0 1 0 40 20 L 40 27 L 32.925781 27 C 32.253176 27 31.589162 26.843979 30.986328 26.542969 L 22.185547 22.142578 L 22.183594 22.140625 C 22.068789 22.081688 22 21.971528 22 21.84375 L 22 18.158203 C 22 18.029441 22.07035 17.917701 22.183594 17.861328 L 30.988281 13.458984 L 30.990234 13.458984 C 31.590624 13.157143 32.253176 13 32.925781 13 z M 50 18 L 57 18 C 58.116666 18 59 18.883334 59 20 C 59 21.116666 58.116666 22 57 22 L 50 22 L 50 18 z M 14.5 19 L 20 19 L 20 21 L 14.726562 21 C 10.945614 21 7.5509594 23.714691 7.0625 27.515625 A 1.0001 1.0001 0 0 0 7.0625 27.517578 C 6.4792517 32.059763 10.049072 36 14.5 36 L 47.5 36 C 53.05041 36 57.49042 40.745149 56.957031 46.417969 C 56.496061 51.325358 52.16346 55 47.193359 55 L 8 55 C 7.4349698 55 7 54.56503 7 54 C 7 53.43497 7.4349698 53 8 53 L 47.273438 53 C 51.054386 53 54.449041 50.285309 54.9375 46.484375 A 1.0001 1.0001 0 0 0 54.9375 46.482422 C 55.520748 41.940237 51.950928 38 47.5 38 L 14.806641 38 C 9.8354493 38 5.5039499 34.325479 5.0429688 29.417969 C 4.5095802 23.745149 8.9495902 19 14.5 19 z"/></svg>