<svg fill="#28a5df" xmlns="http://www.w3.org/2000/svg" viewBox="0 0 64 64" width="64px" height="64px"><path d="M 9 2 C 7.347656 2 6 3.347656 6 5 L 6 40.839844 C 6 41.722656 6.234375 42.589844 6.675781 43.351563 L 8.542969 46.5625 C 8.726563 46.878906 8.722656 47.269531 8.535156 47.582031 L 6.710938 50.621094 C 6.246094 51.394531 6 52.285156 6 53.191406 L 6 59 C 6 60.652344 7.347656 62 9 62 L 55 62 C 56.652344 62 58 60.652344 58 59 L 58 53.191406 C 58 52.285156 57.753906 51.394531 57.285156 50.617188 L 55.46875 47.589844 C 55.28125 47.277344 55.28125 46.882813 55.46875 46.566406 L 57.308594 43.449219 C 57.761719 42.679688 58 41.800781 58 40.90625 L 58 5 C 58 3.347656 56.652344 2 55 2 Z M 9 4 L 55 4 C 55.550781 4 56 4.449219 56 5 L 56 40.90625 C 56 41.441406 55.855469 41.96875 55.582031 42.433594 L 53.742188 45.546875 C 53.183594 46.5 53.1875 47.675781 53.753906 48.617188 L 55.574219 51.644531 C 55.851563 52.113281 56 52.648438 56 53.191406 L 56 59 C 56 59.550781 55.550781 60 55 60 L 9 60 C 8.449219 60 8 59.550781 8 59 L 8 56 L 13.480469 56 C 13.511719 56.089844 13.539063 56.175781 13.578125 56.265625 C 14.078125 57.335938 15.121094 58 16.300781 58 L 21.671875 58 C 22.882813 58 23.96875 57.277344 24.4375 56.164063 L 24.507813 56 L 46 56 C 46.554688 56 47 55.554688 47 55 C 47 54.445313 46.554688 54 46 54 L 25.347656 54 L 28.042969 47.597656 C 29.339844 47.859375 30.664063 48 32 48 C 43.027344 48 52 39.027344 52 28 C 52 16.972656 43.027344 8 32 8 C 20.972656 8 12 16.972656 12 28 C 12 34.78125 15.375 41 21.035156 44.71875 L 14.003906 53.066406 C 13.765625 53.347656 13.59375 53.667969 13.472656 54 L 8 54 L 8 53.191406 C 8 52.648438 8.148438 52.113281 8.429688 51.644531 L 10.25 48.609375 C 10.8125 47.671875 10.820313 46.507813 10.269531 45.5625 L 8.40625 42.34375 C 8.140625 41.890625 8 41.367188 8 40.839844 L 8 5 C 8 4.449219 8.449219 4 9 4 Z M 13 7 C 11.894531 7 11 7.894531 11 9 C 11 10.105469 11.894531 11 13 11 C 14.105469 11 15 10.105469 15 9 C 15 7.894531 14.105469 7 13 7 Z M 51 7 C 49.894531 7 49 7.894531 49 9 C 49 10.105469 49.894531 11 51 11 C 52.105469 11 53 10.105469 53 9 C 53 7.894531 52.105469 7 51 7 Z M 32 10 C 41.925781 10 50 18.074219 50 28 C 50 37.925781 41.925781 46 32 46 C 30.933594 46 29.875 45.90625 28.835938 45.71875 L 31.03125 40.5 C 31.359375 39.71875 31.277344 38.832031 30.8125 38.125 C 30.339844 37.421875 29.558594 37 28.710938 37 L 28.707031 37 C 27.960938 37 27.257813 37.328125 26.78125 37.894531 L 22.328125 43.183594 C 17.113281 39.855469 14 34.183594 14 28 C 14 18.074219 22.074219 10 32 10 Z M 31.921875 14 C 30.410156 14.011719 28.898438 14.261719 27.464844 14.75 C 26.941406 14.929688 26.664063 15.5 26.84375 16.019531 C 26.984375 16.4375 27.375 16.699219 27.789063 16.699219 C 27.894531 16.699219 28.007813 16.679688 28.113281 16.640625 C 30.5625 15.800781 33.300781 15.789063 35.765625 16.601563 C 36.285156 16.777344 36.855469 16.492188 37.03125 15.96875 C 37.203125 15.441406 36.917969 14.875 36.390625 14.703125 C 34.953125 14.226563 33.4375 13.992188 31.921875 14 Z M 39.9375 16.800781 C 39.679688 16.832031 39.4375 16.957031 39.265625 17.171875 C 38.925781 17.609375 39 18.234375 39.433594 18.578125 C 40.007813 19.03125 40.546875 19.546875 41.03125 20.097656 C 41.230469 20.328125 41.507813 20.441406 41.785156 20.441406 C 42.019531 20.441406 42.253906 20.359375 42.441406 20.195313 C 42.859375 19.832031 42.898438 19.199219 42.535156 18.78125 C 41.972656 18.136719 41.34375 17.539063 40.671875 17.011719 C 40.453125 16.839844 40.191406 16.769531 39.9375 16.800781 Z M 32 20 C 27.589844 20 24 23.589844 24 28 C 24 32.410156 27.589844 36 32 36 C 36.410156 36 40 32.410156 40 28 C 40 23.589844 36.410156 20 32 20 Z M 32 22 C 35.308594 22 38 24.691406 38 28 C 38 31.308594 35.308594 34 32 34 C 28.691406 34 26 31.308594 26 28 C 26 24.691406 28.691406 22 32 22 Z M 19.828125 22.339844 C 19.441406 22.351563 19.078125 22.59375 18.929688 22.980469 C 18.730469 23.496094 18.988281 24.074219 19.503906 24.273438 L 21.371094 24.988281 C 21.488281 25.035156 21.613281 25.058594 21.730469 25.058594 C 22.132813 25.058594 22.511719 24.8125 22.664063 24.414063 C 22.863281 23.898438 22.605469 23.320313 22.089844 23.125 L 20.222656 22.40625 C 20.09375 22.355469 19.960938 22.335938 19.828125 22.339844 Z M 32 26 C 30.894531 26 30 26.894531 30 28 C 30 29.105469 30.894531 30 32 30 C 33.105469 30 34 29.105469 34 28 C 34 26.894531 33.105469 26 32 26 Z M 20.984375 27.191406 L 18.984375 27.226563 C 18.433594 27.238281 17.992188 27.691406 18 28.246094 C 18.011719 28.789063 18.457031 29.226563 19 29.226563 L 19.019531 29.226563 L 21.019531 29.191406 C 21.570313 29.183594 22.011719 28.726563 22 28.175781 C 21.992188 27.621094 21.554688 27.230469 20.984375 27.191406 Z M 21.871094 31.296875 C 21.742188 31.300781 21.609375 31.324219 21.484375 31.375 L 19.640625 32.15625 C 19.132813 32.375 18.894531 32.960938 19.109375 33.46875 C 19.273438 33.851563 19.644531 34.078125 20.03125 34.078125 C 20.164063 34.078125 20.296875 34.054688 20.421875 34 L 22.265625 33.21875 C 22.773438 33.003906 23.011719 32.414063 22.796875 31.90625 C 22.632813 31.523438 22.261719 31.296875 21.871094 31.296875 Z M 24.21875 34.777344 C 23.964844 34.777344 23.710938 34.875 23.515625 35.070313 L 22.101563 36.484375 C 21.710938 36.875 21.710938 37.507813 22.101563 37.898438 C 22.296875 38.09375 22.550781 38.191406 22.808594 38.191406 C 23.066406 38.191406 23.320313 38.09375 23.515625 37.898438 L 24.929688 36.484375 C 25.320313 36.09375 25.320313 35.460938 24.929688 35.070313 C 24.734375 34.875 24.476563 34.777344 24.21875 34.777344 Z M 28.707031 39 L 28.710938 39 C 28.953125 39 29.085938 39.144531 29.144531 39.234375 C 29.203125 39.320313 29.285156 39.496094 29.1875 39.71875 L 22.59375 55.386719 C 22.4375 55.757813 22.074219 56 21.671875 56 L 16.296875 56 C 15.707031 56 15.453125 55.558594 15.390625 55.421875 C 15.328125 55.285156 15.152344 54.808594 15.535156 54.359375 L 28.3125 39.1875 C 28.410156 39.066406 28.554688 39 28.707031 39 Z M 51 53 C 49.894531 53 49 53.894531 49 55 C 49 56.105469 49.894531 57 51 57 C 52.105469 57 53 56.105469 53 55 C 53 53.894531 52.105469 53 51 53 Z"/></svg>