<?xml version="1.0" standalone="no"?>
<svg version="1.0" xmlns="http://www.w3.org/2000/svg"
 width="146.000000pt" height="136.000000pt" viewBox="0 0 146.000000 136.000000"
 preserveAspectRatio="xMidYMid meet">

<g transform="translate(0.000000,136.000000) scale(0.100000,-0.100000)"
fill="#0554A4" stroke="none">
<path d="M490 1327 c-110 -33 -196 -83 -280 -164 -87 -82 -140 -165 -177 -278
-22 -68 -27 -98 -27 -200 -1 -107 2 -130 28 -209 73 -223 251 -388 480 -446
62 -16 113 -20 231 -20 l152 0 92 219 c50 121 91 222 91 225 0 3 -110 6 -244
8 l-244 3 -43 30 c-27 19 -54 51 -72 85 -25 47 -28 64 -25 117 5 77 40 133
113 178 l48 30 331 5 330 5 88 210 c48 116 88 213 88 218 0 4 -199 7 -442 6
-429 0 -445 -1 -518 -22z"/>
</g>
</svg>
