<svg fill="#28a5df" xmlns="http://www.w3.org/2000/svg" viewBox="0 0 64 64" width="64px" height="64px"><path d="M 19 2 C 17.347656 2 16 3.347656 16 5 L 16 22.183594 C 14.839844 22.597656 14 23.699219 14 25 C 14 26.300781 14.839844 27.402344 16 27.816406 L 16 37.074219 C 16 38.476563 16.265625 39.851563 16.785156 41.160156 L 19.0625 46.859375 C 19.828125 48.765625 21.648438 50 23.707031 50 L 26 50 L 26 63 C 26 63.554688 26.445313 64 27 64 C 27.554688 64 28 63.554688 28 63 L 28 50 L 36 50 L 36 60 C 36 60.554688 36.445313 61 37 61 C 37.554688 61 38 60.554688 38 60 L 38 50 L 40.292969 50 C 42.351563 50 44.171875 48.765625 44.9375 46.855469 L 47.214844 41.15625 C 47.734375 39.851563 48 38.476563 48 37.074219 L 48 27.8125 C 49.160156 27.402344 50 26.300781 50 25 C 50 23.695313 49.160156 22.597656 48 22.183594 L 48 5 C 48 3.347656 46.652344 2 45 2 Z M 19 4 L 20 4 L 20 13 C 20 14.652344 21.347656 16 23 16 L 41 16 C 42.652344 16 44 14.652344 44 13 L 44 4 L 45 4 C 45.550781 4 46 4.449219 46 5 L 46 22 L 18 22 L 18 5 C 18 4.449219 18.449219 4 19 4 Z M 22 4 L 25 4 L 25 11 C 25 11.554688 25.445313 12 26 12 C 26.554688 12 27 11.554688 27 11 L 27 4 L 31 4 L 31 11 C 31 11.554688 31.445313 12 32 12 C 32.554688 12 33 11.554688 33 11 L 33 4 L 37 4 L 37 11 C 37 11.554688 37.445313 12 38 12 C 38.554688 12 39 11.554688 39 11 L 39 4 L 42 4 L 42 13 C 42 13.550781 41.550781 14 41 14 L 23 14 C 22.449219 14 22 13.550781 22 13 Z M 17 24 L 47 24 C 47.550781 24 48 24.449219 48 25 C 48 25.550781 47.550781 26 47 26 L 17 26 C 16.449219 26 16 25.550781 16 25 C 16 24.449219 16.449219 24 17 24 Z M 18 28 L 46 28 L 46 37.074219 C 46 38.222656 45.78125 39.347656 45.355469 40.417969 L 43.078125 46.113281 C 42.617188 47.257813 41.527344 48 40.292969 48 L 23.707031 48 C 22.472656 48 21.382813 47.257813 20.921875 46.113281 L 18.644531 40.417969 C 18.589844 40.28125 18.546875 40.140625 18.5 40 L 35 40 C 35.554688 40 36 39.554688 36 39 C 36 38.445313 35.554688 38 35 38 L 18.050781 38 C 18.019531 37.691406 18 37.386719 18 37.074219 Z M 22 30 C 21.445313 30 21 30.445313 21 31 L 21 33 C 21 33.554688 21.445313 34 22 34 C 22.554688 34 23 33.554688 23 33 L 23 31 C 23 30.445313 22.554688 30 22 30 Z M 27 30 C 26.445313 30 26 30.445313 26 31 L 26 33 C 26 33.554688 26.445313 34 27 34 C 27.554688 34 28 33.554688 28 33 L 28 31 C 28 30.445313 27.554688 30 27 30 Z M 32 30 C 31.445313 30 31 30.445313 31 31 L 31 33 C 31 33.554688 31.445313 34 32 34 C 32.554688 34 33 33.554688 33 33 L 33 31 C 33 30.445313 32.554688 30 32 30 Z M 37 30 C 36.445313 30 36 30.445313 36 31 L 36 33 C 36 33.554688 36.445313 34 37 34 C 37.554688 34 38 33.554688 38 33 L 38 31 C 38 30.445313 37.554688 30 37 30 Z M 42 30 C 41.445313 30 41 30.445313 41 31 L 41 33 C 41 33.554688 41.445313 34 42 34 C 42.554688 34 43 33.554688 43 33 L 43 31 C 43 30.445313 42.554688 30 42 30 Z M 39 38 C 38.445313 38 38 38.445313 38 39 C 38 39.554688 38.445313 40 39 40 L 43 40 C 43.554688 40 44 39.554688 44 39 C 44 38.445313 43.554688 38 43 38 Z"/></svg>