<svg fill="#28a5df" xmlns="http://www.w3.org/2000/svg" viewBox="0 0 64 64" width="64px" height="64px"><path d="M 12.675781 6 C 11.21875 6 9.976563 7.042969 9.726563 8.476563 L 4.078125 40.480469 C 4.027344 40.765625 4 41.058594 4 41.347656 L 4 55 C 4 56.652344 5.347656 58 7 58 L 57 58 C 58.652344 58 60 56.652344 60 55 L 60 41.347656 C 60 41.058594 59.972656 40.765625 59.921875 40.480469 L 54.277344 8.476563 C 54.023438 7.042969 52.78125 6 51.324219 6 Z M 12.675781 8 L 51.324219 8 C 51.808594 8 52.222656 8.347656 52.308594 8.828125 L 57.808594 40 L 6.191406 40 L 11.691406 8.828125 C 11.777344 8.347656 12.191406 8 12.675781 8 Z M 6 42 L 58 42 L 58 55 C 58 55.550781 57.550781 56 57 56 L 7 56 C 6.449219 56 6 55.550781 6 55 Z M 51 46 C 49.347656 46 48 47.347656 48 49 C 48 50.652344 49.347656 52 51 52 C 52.652344 52 54 50.652344 54 49 C 54 47.347656 52.652344 46 51 46 Z M 11 47 C 10.449219 47 10 47.449219 10 48 L 10 51 C 10 51.550781 10.449219 52 11 52 L 41 52 C 41.550781 52 42 51.550781 42 51 L 42 48 C 42 47.449219 41.550781 47 41 47 C 40.449219 47 40 47.449219 40 48 L 40 50 L 37 50 L 37 48 C 37 47.449219 36.550781 47 36 47 C 35.449219 47 35 47.449219 35 48 L 35 50 L 32 50 L 32 48 C 32 47.449219 31.550781 47 31 47 C 30.449219 47 30 47.449219 30 48 L 30 50 L 27 50 L 27 48 C 27 47.449219 26.550781 47 26 47 C 25.449219 47 25 47.449219 25 48 L 25 50 L 22 50 L 22 48 C 22 47.449219 21.550781 47 21 47 C 20.449219 47 20 47.449219 20 48 L 20 50 L 17 50 L 17 48 C 17 47.449219 16.550781 47 16 47 C 15.449219 47 15 47.449219 15 48 L 15 50 L 12 50 L 12 48 C 12 47.449219 11.550781 47 11 47 Z M 51 48 C 51.550781 48 52 48.449219 52 49 C 52 49.550781 51.550781 50 51 50 C 50.449219 50 50 49.550781 50 49 C 50 48.449219 50.449219 48 51 48 Z"/></svg>